<svg xmlns="http://www.w3.org/2000/svg" width="1200" height="800">
<rect width="100%" height="100%" fill="white"/>
<text x="600.0" y="35" text-anchor="middle" font-size="28" font-family="Arial" fill="#222222">Figure 2. Phylogenetic permutation summary</text>
<line x1="90" y1="710" x2="1160" y2="710" stroke="#222222"/>
<line x1="90" y1="70" x2="90" y2="710" stroke="#222222"/>
<line x1="446.66666666666663" y1="710" x2="446.66666666666663" y2="716" stroke="#222222"/>
<text x="446.66666666666663" y="734" text-anchor="middle" font-size="16" font-family="Arial">1</text>
<line x1="803.3333333333333" y1="710" x2="803.3333333333333" y2="716" stroke="#222222"/>
<text x="803.3333333333333" y="734" text-anchor="middle" font-size="16" font-family="Arial">2</text>
<line x1="84" y1="710.0" x2="90" y2="710.0" stroke="#222222"/>
<line x1="90" y1="710.0" x2="1160" y2="710.0" stroke="#DDDDDD"/>
<text x="80" y="715.0" text-anchor="end" font-size="16" font-family="Arial">0.00</text>
<line x1="84" y1="390.0" x2="90" y2="390.0" stroke="#222222"/>
<line x1="90" y1="390.0" x2="1160" y2="390.0" stroke="#DDDDDD"/>
<text x="80" y="395.0" text-anchor="end" font-size="16" font-family="Arial">0.09</text>
<line x1="84" y1="70.0" x2="90" y2="70.0" stroke="#222222"/>
<line x1="90" y1="70.0" x2="1160" y2="70.0" stroke="#DDDDDD"/>
<text x="80" y="75.0" text-anchor="end" font-size="16" font-family="Arial">0.17</text>
<text x="625.0" y="775" text-anchor="middle" font-size="18" font-family="Arial">Metric</text>
<text x="25" y="390.0" transform="rotate(-90 25 390.0)" text-anchor="middle" font-size="18" font-family="Arial">Effect size</text>
<rect x="356.7" y="198.0" width="180" height="512.0" fill="#9467bd"/>
<text x="446.66666666666663" y="188.0" text-anchor="middle" font-size="16" font-family="Arial">0.137</text>
<text x="446.66666666666663" y="750.0" text-anchor="middle" font-size="16" font-family="Arial">Observed effect</text>
<rect x="713.3" y="577.5" width="180" height="132.5" fill="#ff7f0e"/>
<text x="803.3333333333333" y="567.5" text-anchor="middle" font-size="16" font-family="Arial">0.035</text>
<text x="803.3333333333333" y="750.0" text-anchor="middle" font-size="16" font-family="Arial">Permuted mean</text>
<text x="600.0" y="745" text-anchor="middle" font-size="16" font-family="Arial">Empirical two-sided p = 0.0002 (5000 permutations)</text>
</svg>